<svg width="45" height="45" viewBox="0 0 45 45" fill="none" xmlns="http://www.w3.org/2000/svg">
<path fill-rule="evenodd" clip-rule="evenodd" d="M22.8205 28.0838C22.8205 28.0877 22.8186 28.0914 22.8153 28.0936L20.1514 29.9232C17.6806 31.62 17.885 35.3311 20.5271 36.7464L22.8153 37.9721C22.8185 37.9738 22.8205 37.9772 22.8205 37.9809C22.8205 37.9884 22.8285 37.9931 22.8351 37.9896L22.8364 37.9889C22.8396 37.9872 22.8434 37.9872 22.8466 37.9889L22.8479 37.9896C22.8545 37.9931 22.8625 37.9884 22.8625 37.9809C22.8625 37.9772 22.8645 37.9738 22.8677 37.9721L25.1559 36.7464C27.798 35.3311 28.0023 31.62 25.5316 29.9232L22.8676 28.0936C22.8644 28.0914 22.8625 28.0877 22.8625 28.0838V28.0799C22.8625 28.072 22.8536 28.0673 22.8471 28.0718C22.8437 28.0741 22.8393 28.0741 22.8359 28.0718C22.8294 28.0673 22.8205 28.072 22.8205 28.0799V28.0838Z" fill="#FF9930"/>
<path d="M37.973 27.5613C39.3035 24.4444 33.6175 17.8049 30.6083 14.8748L29.2302 28.6065C35.3501 29.4427 37.3525 28.7773 37.973 27.5613Z" fill="#FF9930"/>
<path d="M7.52748 27.5613C6.19699 24.4444 11.8829 17.8049 14.8922 14.8748L16.2703 28.6065C10.1504 29.4427 8.148 28.7773 7.52748 27.5613Z" fill="#FF9930"/>
<path d="M29.4162 30.418H16.2781C14.408 30.418 12.7562 29.1193 12.5199 27.2643C11.0819 15.9712 16.6818 9.91007 21.0134 7.05924C22.1113 6.33667 23.5328 6.3478 24.6239 7.08059C32.6391 12.4636 33.8616 21.6887 32.9541 27.6186C32.6937 29.3199 31.1373 30.418 29.4162 30.418Z" fill="#FFCF56"/>
<circle cx="22.6582" cy="19.6782" r="4.60327" fill="#FF9930"/>
</svg>
