<svg width="150" height="133" viewBox="0 0 150 133" fill="none" xmlns="http://www.w3.org/2000/svg">
<g clip-path="url(#clip0_372_2523)">
<path d="M12.5094 104.685C49.3749 76.0882 69.0961 27.554 73.6486 6.97873C106.318 4.74471 157.784 119.866 141.231 127.378C124.679 134.89 15.4053 115.77 8.88013 113.548C3.65998 111.77 9.12459 106.899 12.5094 104.685Z" fill="#FFCF56"/>
<mask id="mask0_372_2523" style="mask-type:alpha" maskUnits="userSpaceOnUse" x="6" y="6" width="139" height="124">
<path d="M12.5094 104.685C49.3749 76.0882 69.0961 27.554 73.6486 6.97873C106.318 4.74471 157.784 119.866 141.231 127.378C124.679 134.89 15.4053 115.77 8.88013 113.548C3.65998 111.77 9.12459 106.899 12.5094 104.685Z" fill="#FFCF56"/>
</mask>
<g mask="url(#mask0_372_2523)">
<path d="M65.7184 42.9479C85.8905 48.1757 139.918 104.874 144.787 127.1L201.539 72.1618L193.717 4.78315L103.056 -39.5914C100.737 -37.7771 96.4728 -33.1605 97.974 -29.208C99.8505 -24.2673 84.2523 -20.8523 69.8143 4.25836C60.1928 20.9922 59.2752 41.2781 65.7184 42.9479Z" fill="url(#paint0_linear_372_2523)" fill-opacity="0.1"/>
<path d="M74.6448 27.2044C93.776 35.043 141.457 95.8229 144.327 117.25L203.956 74.4053L201.986 10.4699L117.744 -44.2152C115.343 -42.8659 110.822 -39.1912 111.949 -35.2873C113.357 -30.4075 97.9418 -29.5197 81.8434 -8.24485C71.1154 5.93279 68.534 24.7007 74.6448 27.2044Z" fill="url(#paint1_linear_372_2523)" fill-opacity="0.1"/>
</g>
<path d="M73.6487 6.97883C69.0962 27.5541 49.3749 76.0883 12.5094 104.686C9.12459 106.899 3.65998 111.771 8.88013 113.548C9.32018 113.698 10.2275 113.925 11.5422 114.215C12.7499 112.488 14.8837 110.746 16.5277 109.642C53.6659 80.0787 74.3639 29.7326 79.5819 7.75412C77.5511 7.12124 75.5674 6.84762 73.6487 6.97883Z" fill="#F7AC38"/>
</g>
<defs>
<linearGradient id="paint0_linear_372_2523" x1="119.516" y1="-74.0428" x2="-52.4339" y2="125.041" gradientUnits="userSpaceOnUse">
<stop stop-color="#FEBB48"/>
<stop offset="1" stop-color="#FF7E00"/>
</linearGradient>
<linearGradient id="paint1_linear_372_2523" x1="136.583" y1="-73.8965" x2="-40.4258" y2="93.0864" gradientUnits="userSpaceOnUse">
<stop stop-color="#FEBB48"/>
<stop offset="1" stop-color="#FF7E00"/>
</linearGradient>
<clipPath id="clip0_372_2523">
<rect width="150" height="132" fill="white" transform="translate(0 0.781738)"/>
</clipPath>
</defs>
</svg>
