<svg width="96" height="132" viewBox="0 0 96 132" fill="none" xmlns="http://www.w3.org/2000/svg">
<path d="M7.20606 103.969C44.0715 75.3714 63.7928 26.8372 68.3453 6.26194C101.014 4.02791 152.48 119.149 135.928 126.661C119.376 134.174 10.102 115.054 3.57678 112.831C-1.64337 111.054 3.82124 106.182 7.20606 103.969Z" fill="#FFCF56"/>
<mask id="mask0_232_3293" style="mask-type:alpha" maskUnits="userSpaceOnUse" x="1" y="6" width="139" height="123">
<path d="M7.20606 103.969C44.0715 75.3714 63.7928 26.8372 68.3453 6.26194C101.014 4.02791 152.48 119.149 135.928 126.661C119.376 134.174 10.102 115.054 3.57678 112.831C-1.64337 111.054 3.82124 106.182 7.20606 103.969Z" fill="#FFCF56"/>
</mask>
<g mask="url(#mask0_232_3293)">
<path d="M60.415 42.2311C80.5871 47.4589 134.615 104.157 139.484 126.383L196.235 71.445L188.414 4.06636L97.7529 -40.3082C95.4333 -38.4939 91.1695 -33.8773 92.6707 -29.9248C94.5472 -24.9841 78.949 -21.5691 64.511 3.54156C54.8894 20.2754 53.9718 40.5613 60.415 42.2311Z" fill="url(#paint0_linear_232_3293)" fill-opacity="0.1"/>
<path d="M69.3414 26.4876C88.4727 34.3262 136.153 95.1061 139.023 116.533L198.653 73.6885L196.683 9.75307L112.441 -44.932C110.04 -43.5827 105.519 -39.908 106.645 -36.0041C108.054 -31.1243 92.6385 -30.2365 76.5401 -8.96165C65.812 5.216 63.2307 23.9839 69.3414 26.4876Z" fill="url(#paint1_linear_232_3293)" fill-opacity="0.1"/>
</g>
<path d="M68.3453 6.26204C63.7928 26.8373 44.0715 75.3715 7.20607 103.969C3.82124 106.182 -1.64336 111.054 3.57678 112.832C4.01683 112.981 4.92418 113.208 6.23887 113.498C7.44654 111.771 9.58039 110.029 11.2243 108.925C48.3626 79.3619 69.0606 29.0158 74.2786 7.03732C72.2477 6.40445 70.2641 6.13082 68.3453 6.26204Z" fill="#F7AC38"/>
<defs>
<linearGradient id="paint0_linear_232_3293" x1="114.213" y1="-74.7595" x2="-57.7372" y2="124.325" gradientUnits="userSpaceOnUse">
<stop stop-color="#FEBB48"/>
<stop offset="1" stop-color="#FF7E00"/>
</linearGradient>
<linearGradient id="paint1_linear_232_3293" x1="131.279" y1="-74.6133" x2="-45.7291" y2="92.3696" gradientUnits="userSpaceOnUse">
<stop stop-color="#FEBB48"/>
<stop offset="1" stop-color="#FF7E00"/>
</linearGradient>
</defs>
</svg>
