<svg width="150" height="133" viewBox="0 0 150 133" fill="none" xmlns="http://www.w3.org/2000/svg">
<g clip-path="url(#clip0_372_3200)">
<path d="M133.792 15.2652C103.677 50.9021 94.4776 102.476 94.3022 123.548C62.8116 132.525 -11.464 30.6198 3.16473 19.8303C17.7934 9.0408 128.655 5.0246 135.499 5.84159C140.975 6.49518 136.642 12.3963 133.792 15.2652Z" fill="#FFCF56"/>
<mask id="mask0_372_3200" style="mask-type:alpha" maskUnits="userSpaceOnUse" x="1" y="5" width="138" height="120">
<path d="M133.792 15.2652C103.677 50.9021 94.4776 102.476 94.3022 123.548C62.8116 132.525 -11.464 30.6198 3.16473 19.8303C17.7934 9.0408 128.655 5.0246 135.499 5.84159C140.975 6.49518 136.642 12.3963 133.792 15.2652Z" fill="#FFCF56"/>
</mask>
<g mask="url(#mask0_372_3200)">
<path d="M94.581 86.7158C73.7628 85.7962 9.12751 41.5696 -0.255847 20.8416L-44.3451 86.3779L-22.6861 150.658L75.2193 175.214C77.111 172.957 80.3218 167.555 78.0317 164.001C75.169 159.559 89.7164 152.975 98.6183 125.412C104.551 107.043 101.231 87.0096 94.581 86.7158Z" fill="url(#paint0_linear_372_3200)" fill-opacity="0.1"/>
<path d="M89.1229 103.971C68.7799 100.281 9.50465 50.7426 2.24275 30.3807L-47.176 84.6862L-31.957 146.815L61.8137 182.791C63.882 180.972 67.5401 176.437 65.6264 172.853C63.2343 168.373 78.1281 164.299 89.4516 140.143C96.9976 124.044 95.6206 105.15 89.1229 103.971Z" fill="url(#paint1_linear_372_3200)" fill-opacity="0.1"/>
</g>
<path d="M94.3022 123.548C94.4775 102.476 103.677 50.9019 133.792 15.2649C136.642 12.3961 140.975 6.49491 135.499 5.84131C135.038 5.78621 134.103 5.75309 132.757 5.74255C131.934 7.68284 130.209 9.83084 128.831 11.2523C98.6505 47.8908 88.8719 101.44 88.3374 124.023C90.4555 124.22 92.4526 124.075 94.3022 123.548Z" fill="#F7AC38"/>
</g>
<defs>
<linearGradient id="paint0_linear_372_3200" x1="66.2816" y1="212.335" x2="193.084" y2="-18.1482" gradientUnits="userSpaceOnUse">
<stop stop-color="#FEBB48"/>
<stop offset="1" stop-color="#FF7E00"/>
</linearGradient>
<linearGradient id="paint1_linear_372_3200" x1="49.5578" y1="215.74" x2="187.982" y2="15.6051" gradientUnits="userSpaceOnUse">
<stop stop-color="#FEBB48"/>
<stop offset="1" stop-color="#FF7E00"/>
</linearGradient>
<clipPath id="clip0_372_3200">
<rect width="150" height="132" fill="white" transform="translate(0 0.781738)"/>
</clipPath>
</defs>
</svg>
