<svg width="95" height="155" viewBox="0 0 95 155" fill="none" xmlns="http://www.w3.org/2000/svg">
<path d="M69.1975 26.4254C39.0831 62.0623 29.8832 113.636 29.7079 134.708C-1.78281 143.685 -76.0583 41.78 -61.4296 30.9905C-46.8009 20.201 64.0602 16.1847 70.9048 17.0017C76.3805 17.6553 72.0481 23.5565 69.1975 26.4254Z" fill="#FFCF56"/>
<mask id="mask0_232_3300" style="mask-type:alpha" maskUnits="userSpaceOnUse" x="-64" y="16" width="138" height="120">
<path d="M69.1975 26.4254C39.0831 62.0623 29.8832 113.636 29.7079 134.708C-1.78281 143.685 -76.0583 41.78 -61.4296 30.9905C-46.8009 20.201 64.0602 16.1847 70.9048 17.0017C76.3805 17.6553 72.0481 23.5565 69.1975 26.4254Z" fill="#FFCF56"/>
</mask>
<g mask="url(#mask0_232_3300)">
<path d="M29.9866 97.876C9.16842 96.9563 -55.4668 52.7298 -64.8502 32.0018L-108.939 97.5381L-87.2805 161.818L10.6249 186.374C12.5166 184.118 15.7275 178.715 13.4373 175.161C10.5746 170.719 25.122 164.135 34.0239 136.572C39.9562 118.203 36.6362 98.1697 29.9866 97.876Z" fill="url(#paint0_linear_232_3300)" fill-opacity="0.1"/>
<path d="M24.5285 115.131C4.18557 111.442 -55.0897 61.9028 -62.3516 41.5409L-111.77 95.8463L-96.5513 157.975L-2.78062 193.951C-0.712361 192.132 2.94574 187.598 1.03207 184.013C-1.36003 179.533 13.5337 175.46 24.8572 151.303C32.4032 135.204 31.0262 116.31 24.5285 115.131Z" fill="url(#paint1_linear_232_3300)" fill-opacity="0.1"/>
</g>
<path d="M29.7079 134.708C29.8832 113.636 39.0831 62.062 69.1975 26.4251C72.0481 23.5562 76.3805 17.6551 70.9049 17.0015C70.4433 16.9464 69.5086 16.9133 68.1623 16.9027C67.3401 18.843 65.6151 20.991 64.2366 22.4124C34.0562 59.051 24.2776 112.6 23.7431 135.183C25.8612 135.38 27.8583 135.235 29.7079 134.708Z" fill="#F7AC38"/>
<defs>
<linearGradient id="paint0_linear_232_3300" x1="1.68723" y1="223.495" x2="128.49" y2="-6.98804" gradientUnits="userSpaceOnUse">
<stop stop-color="#FEBB48"/>
<stop offset="1" stop-color="#FF7E00"/>
</linearGradient>
<linearGradient id="paint1_linear_232_3300" x1="-15.0366" y1="226.9" x2="123.387" y2="26.7653" gradientUnits="userSpaceOnUse">
<stop stop-color="#FEBB48"/>
<stop offset="1" stop-color="#FF7E00"/>
</linearGradient>
</defs>
</svg>
