<svg width="150" height="132" viewBox="0 0 150 132" fill="none" xmlns="http://www.w3.org/2000/svg">
<g clip-path="url(#clip0_372_3222)">
<path d="M132.746 10.8905C133.713 10.1257 135.097 10.4683 135.512 11.6295C136.482 14.343 137.816 19.1208 138.827 25.9059C140.561 37.5484 144.086 68.9959 140.873 80.0837C138.457 88.4223 110.484 108.17 94.3264 118.633C93.0288 119.474 91.3303 118.59 91.3227 117.045C91.1917 90.3922 99.1806 37.4349 132.746 10.8905Z" fill="#E87709"/>
<path fill-rule="evenodd" clip-rule="evenodd" d="M137.92 6.40747C137.688 5.82764 136.975 5.65941 136.484 6.04493C135.708 6.65341 134.946 7.27594 134.196 7.91191C135.077 10.9088 136.079 15.1448 136.898 20.5925C138.762 33.0059 142.594 66.5293 139.323 78.3241C136.955 86.8675 110.053 106.554 93.1512 117.872C93.1471 119.239 93.1615 120.549 93.1925 121.797C93.2118 122.572 94.0697 122.998 94.7182 122.573C111.105 111.824 141.805 89.8554 144.341 80.6897C147.609 68.8801 143.768 35.3112 141.901 22.8809C140.638 14.4762 138.939 8.95127 137.92 6.40747Z" fill="#F7AC38"/>
</g>
<defs>
<clipPath id="clip0_372_3222">
<rect width="150" height="132" fill="white"/>
</clipPath>
</defs>
</svg>
