<svg width="150" height="132" viewBox="0 0 150 132" fill="none" xmlns="http://www.w3.org/2000/svg">
<path d="M12.7859 107.635C11.6809 108.182 10.3978 107.559 10.2334 106.337C9.84935 103.481 9.53716 98.5301 9.95912 91.6832C10.6832 79.9346 13.7739 48.4414 19.2215 38.2638C23.3183 30.6097 54.7857 17.1093 72.7658 10.2339C74.2097 9.68174 75.6875 10.8987 75.3735 12.4124C69.9605 38.5096 51.1362 88.6488 12.7859 107.635Z" fill="#E87709"/>
<path fill-rule="evenodd" clip-rule="evenodd" d="M6.79215 110.944C6.89869 111.56 7.56083 111.873 8.12165 111.598C9.00686 111.164 9.88219 110.713 10.7477 110.247C10.509 107.133 10.4094 102.781 10.7417 97.2821C11.499 84.7523 14.7206 51.1648 20.3715 40.3076C24.4648 32.4433 54.8715 18.7799 73.7571 11.2229C74.0452 9.8868 74.3035 8.60244 74.5326 7.37557C74.6749 6.61319 73.9244 6.01801 73.2016 6.29926C54.938 13.4061 20.3412 28.5122 15.9551 36.9505C10.3038 47.8227 7.08139 81.4565 6.32373 94.0035C5.81144 102.487 6.32475 108.245 6.79215 110.944Z" fill="#F7AC38"/>
</svg>
