<svg width="45" height="45" viewBox="0 0 45 45" fill="none" xmlns="http://www.w3.org/2000/svg">
<circle cx="22.3533" cy="22.5" r="14.7585" fill="#8AC2FF"/>
<path d="M7.38821 17.5228C7.38821 15.659 8.89906 14.1482 10.7628 14.1482H17.2851C19.1488 14.1482 20.6597 15.659 20.6597 17.5228V22.0428C20.6597 24.5278 18.6452 26.5422 16.1602 26.5422H11.8876C9.40268 26.5422 7.38821 24.5278 7.38821 22.0428V17.5228Z" fill="#2E5DBD"/>
<path d="M23.8404 17.5228C23.8404 15.659 25.3512 14.1482 27.2149 14.1482H33.7372C35.601 14.1482 37.1118 15.659 37.1118 17.5228V22.0428C37.1118 24.5278 35.0974 26.5422 32.6124 26.5422H28.3398C25.8548 26.5422 23.8404 24.5278 23.8404 22.0428V17.5228Z" fill="#2E5DBD"/>
<path fill-rule="evenodd" clip-rule="evenodd" d="M31.2639 28.1072C31.6603 28.2726 31.8475 28.7281 31.6821 29.1245C29.7816 33.6786 25.1095 34.3505 23.0529 34.1426C22.6255 34.0994 22.3141 33.718 22.3573 33.2906C22.4005 32.8632 22.782 32.5518 23.2093 32.595C24.9506 32.771 28.7286 32.1628 30.2466 28.5254C30.412 28.129 30.8675 27.9418 31.2639 28.1072Z" fill="#2E5DBD"/>
<path fill-rule="evenodd" clip-rule="evenodd" d="M18.6525 18.601C18.6525 18.1867 19.0302 17.851 19.4961 17.851H25.1976C25.6635 17.851 26.0412 18.1867 26.0412 18.601C26.0412 19.0152 25.6635 19.351 25.1976 19.351H19.4961C19.0302 19.351 18.6525 19.0152 18.6525 18.601Z" fill="#2E5DBD"/>
<path fill-rule="evenodd" clip-rule="evenodd" d="M26.4388 20.6501C26.2192 20.4305 26.2192 20.0744 26.4388 19.8547L29.1005 17.193C29.3201 16.9734 29.6763 16.9734 29.8959 17.193C30.1155 17.4127 30.1155 17.7688 29.8959 17.9884L27.2342 20.6501C27.0146 20.8698 26.6584 20.8698 26.4388 20.6501Z" fill="#88BDFF"/>
<path fill-rule="evenodd" clip-rule="evenodd" d="M9.68688 20.6501C9.46724 20.4305 9.46724 20.0744 9.68688 19.8547L12.3486 17.193C12.5682 16.9734 12.9243 16.9734 13.144 17.193C13.3636 17.4127 13.3636 17.7688 13.144 17.9884L10.4823 20.6501C10.2626 20.8698 9.90652 20.8698 9.68688 20.6501Z" fill="#88BDFF"/>
<path fill-rule="evenodd" clip-rule="evenodd" d="M27.2467 23.4973C27.027 23.2777 27.027 22.9216 27.2467 22.7019L32.0037 17.9449C32.2233 17.7252 32.5794 17.7252 32.7991 17.9449C33.0187 18.1645 33.0187 18.5206 32.7991 18.7403L28.0421 23.4973C27.8224 23.7169 27.4663 23.7169 27.2467 23.4973Z" fill="#88BDFF"/>
<path fill-rule="evenodd" clip-rule="evenodd" d="M10.4945 23.4972C10.2749 23.2775 10.2749 22.9214 10.4945 22.7018L15.2516 17.9448C15.4712 17.7251 15.8273 17.7251 16.047 17.9448C16.2666 18.1644 16.2666 18.5205 16.047 18.7402L11.2899 23.4972C11.0703 23.7168 10.7142 23.7168 10.4945 23.4972Z" fill="#88BDFF"/>
</svg>
