<svg width="32" height="33" viewBox="0 0 32 33" fill="none" xmlns="http://www.w3.org/2000/svg">
<rect y="0.926758" width="32" height="32" rx="4" fill="url(#paint0_linear_417_3253)"/>
<path d="M8.89792 6.83156C9.75194 5.31921 10.692 4.95595 11.0552 4.96337C12.1632 4.80032 13.1509 5.2233 13.5415 5.41913C14.7614 6.03063 17.8353 7.48171 20.7894 8.42819C24.4822 9.6113 26.28 12.5299 27.0983 14.0091C27.9165 15.4882 28.3256 18.9185 27.885 21.2474C27.4445 23.5762 26.0597 23.6392 24.9582 23.4503C23.8568 23.2615 22.6923 22.3174 21.8112 21.9712C21.1062 21.6943 19.0417 20.8907 18.0976 20.5236L20.1747 25.433C20.5943 26.587 20.5271 28.9011 16.9017 28.9263C12.3699 28.9578 8.37687 26.4229 7.17718 25.0239C5.95537 23.5991 3.9042 20.618 3.93567 17.4079C3.96714 14.1979 4.93915 12.2582 5.71756 11.1907C6.49597 10.1231 7.83039 8.72199 8.89792 6.83156Z" fill="#FFC756"/>
<path d="M10.5859 26.9449C7.23201 25.3999 5.42008 21.6849 4.93335 20.0205C5.35729 20.7192 6.82223 22.9664 9.29052 24.3983C12.3759 26.1883 17.0392 26.6123 17.6751 26.6358C18.3111 26.6594 20.313 26.6623 19.5829 27.5573C18.8528 28.4522 14.7782 28.8762 10.5859 26.9449Z" fill="#FEBB49"/>
<mask id="mask0_417_3253" style="mask-type:alpha" maskUnits="userSpaceOnUse" x="3" y="4" width="26" height="25">
<path d="M8.89792 6.83156C9.75194 5.31921 10.692 4.95595 11.0552 4.96337C12.1632 4.80032 13.1509 5.2233 13.5415 5.41913C14.7614 6.03063 17.8353 7.48171 20.7894 8.42819C24.4822 9.6113 26.28 12.5299 27.0983 14.0091C27.9165 15.4882 28.3256 18.9185 27.885 21.2474C27.4445 23.5762 26.0597 23.6392 24.9582 23.4503C23.8568 23.2615 22.6923 22.3174 21.8112 21.9712C21.1062 21.6943 19.0417 20.8907 18.0976 20.5236L20.1747 25.433C20.5943 26.587 20.5271 28.9011 16.9017 28.9263C12.3699 28.9578 8.37687 26.4229 7.17718 25.0239C5.95537 23.5991 3.9042 20.618 3.93567 17.4079C3.96714 14.1979 4.93915 12.2582 5.71756 11.1907C6.49597 10.1231 7.83039 8.72199 8.89792 6.83156Z" fill="#FBB34E"/>
</mask>
<g mask="url(#mask0_417_3253)">
<path d="M17.1794 18.8488C17.7736 19.7534 18.3049 20.9459 18.4963 21.4291L18.6955 21.2925C18.6993 21.1266 18.6207 20.5212 18.1854 19.1273C17.6815 17.5141 16.8463 15.7624 16.4443 15.0148C15.5903 13.4261 13.6246 10.4616 12.4008 8.4808C12.0436 7.81909 11.5145 6.49888 11.3017 7.60285C11.0888 8.70684 12.2095 10.98 12.5831 11.6238C12.9567 12.2676 16.4366 17.7182 17.1794 18.8488Z" fill="#FFB852"/>
<mask id="mask1_417_3253" style="mask-type:alpha" maskUnits="userSpaceOnUse" x="11" y="7" width="8" height="15">
<path d="M17.1827 18.8561C17.7769 19.7607 18.3082 20.9532 18.4996 21.4364L18.6988 21.2998C18.7026 21.1339 18.4092 20.4686 18.1887 19.1347C17.9131 17.4672 16.8496 15.7698 16.4476 15.0221C15.5936 13.4334 13.6279 10.4689 12.4041 8.48813C12.0469 7.82642 11.5178 6.50621 11.305 7.61017C11.0921 8.71416 12.2128 10.9873 12.5864 11.6311C12.96 12.2749 16.4399 17.7255 17.1827 18.8561Z" fill="#FFB852"/>
</mask>
<g mask="url(#mask1_417_3253)">
<path d="M11.8218 8.68226C11.5071 8.04494 11.0717 8.10946 10.8933 8.22138L10.8952 8.34199L10.502 12.0267L12.8434 18.139L18.1252 21.5608C18.2412 21.6544 18.5709 21.9331 18.4285 21.331C18.2505 20.5784 16.6829 17.0043 15.534 14.9673C14.7825 13.6349 12.2152 9.4789 11.8218 8.68226Z" fill="#F5A12F"/>
</g>
</g>
<mask id="mask2_417_3253" style="mask-type:alpha" maskUnits="userSpaceOnUse" x="4" y="20" width="16" height="9">
<path d="M10.5859 26.9449C7.23201 25.3999 5.42008 21.6849 4.93335 20.0205C5.35729 20.7192 6.82223 22.9664 9.29052 24.3983C12.3759 26.1883 17.0392 26.6123 17.6751 26.6358C18.3111 26.6594 20.313 26.6623 19.5829 27.5573C18.8528 28.4522 14.7782 28.8762 10.5859 26.9449Z" fill="#FEBB49"/>
</mask>
<g mask="url(#mask2_417_3253)">
<path d="M11.4463 26.0949C7.77446 24.8283 5.5744 21.6266 4.93335 20.1841L8.34369 21.0285C9.33517 21.4683 11.3438 22.3584 11.4463 22.4006C11.5489 22.4428 16.0945 24.694 18.4364 25.9782C18.804 26.2948 19.5225 26.8502 19.1801 27.192C18.8647 27.5067 16.0362 27.6781 11.4463 26.0949Z" fill="url(#paint1_linear_417_3253)"/>
</g>
<defs>
<linearGradient id="paint0_linear_417_3253" x1="15.1275" y1="-13.2352" x2="13.9521" y2="50.942" gradientUnits="userSpaceOnUse">
<stop stop-color="#EC7D86"/>
<stop offset="0.51" stop-color="#EF7052"/>
<stop offset="1" stop-color="#F3B06C"/>
</linearGradient>
<linearGradient id="paint1_linear_417_3253" x1="4.93335" y1="16.0669" x2="31.7041" y2="50.1119" gradientUnits="userSpaceOnUse">
<stop stop-color="#FEBB48"/>
<stop offset="1" stop-color="#E87709"/>
</linearGradient>
</defs>
</svg>
