<svg width="160" height="154" viewBox="0 0 160 154" fill="none" xmlns="http://www.w3.org/2000/svg">
<path d="M88.6736 4.02316C41.1074 1.43784 3.80166 35.3417 0.521147 80.5486C-0.939443 100.681 0.609039 113.271 5.94989 123.723C6.9891 125.758 9.56905 127.601 11.9034 126.591C23.9449 121.376 47.6736 109.685 70.5778 92.9582L50.326 146.849C49.5142 149.01 50.9283 151.358 53.2187 151.658C59.9995 152.542 67.2093 153.057 74.7165 153.457C119.356 155.838 157.352 123.747 159.767 78.483C162.181 33.2192 133.313 6.45078 88.6761 4.02575L88.6736 4.02316Z" fill="#E87709"/>
<path d="M88.6734 0.920647C70.4587 -0.0695305 53.7537 4.29707 39.882 12.5934C17.5285 25.9621 2.54517 49.5505 0.521025 77.4461C-0.939565 97.578 0.608917 110.169 5.94976 120.621C6.98898 122.656 9.56892 124.499 11.9033 123.488C17.1485 121.216 24.6143 117.715 33.2641 113.103C42.6868 108.077 53.5185 101.735 64.4147 94.2274C66.4699 92.8107 68.5276 91.3551 70.5776 89.8582L50.3258 143.749C49.5141 145.911 50.9282 148.258 53.2186 148.558C59.9993 149.442 67.2092 149.957 74.7164 150.357C89.6299 151.154 103.799 148.095 116.151 141.989C140.769 129.82 158.159 105.523 159.767 75.383C162.181 30.1192 133.313 3.35085 88.676 0.925819L88.6734 0.920647Z" fill="#FFCF56"/>
<path d="M70.1924 90.8459C70.1924 90.8459 85.5584 57.8546 83.9013 49.8505C82.2442 41.8463 68.1243 49.8505 68.1243 49.8505C68.1243 49.8505 49.6253 58.5837 45.3702 62.7073L70.1899 90.8459H70.1924Z" fill="url(#paint0_linear_22_845)"/>
<path opacity="0.34" d="M88.7693 0.925896C70.5546 -0.0642815 53.8496 4.30232 39.9779 12.5986C52.6372 6.33697 67.2922 3.16995 83.0821 4.02828C127.719 6.45331 156.587 33.2217 154.173 78.4855C152.691 106.249 137.822 129.052 116.244 141.989C140.862 129.82 158.252 105.523 159.86 75.3831C162.274 30.1193 133.407 3.35093 88.7693 0.925896Z" fill="#FFB843"/>
<defs>
<linearGradient id="paint0_linear_22_845" x1="53.6503" y1="81.3242" x2="83.5472" y2="48.4516" gradientUnits="userSpaceOnUse">
<stop offset="0.19" stop-color="#FBB03B" stop-opacity="0"/>
<stop offset="0.97" stop-color="#FEBB48"/>
</linearGradient>
</defs>
</svg>
