<svg width="162" height="161" viewBox="0 0 162 161" fill="none" xmlns="http://www.w3.org/2000/svg">
<path d="M33.5744 13.6219C39.2681 3.53931 45.5352 1.1175 47.957 1.16693C55.3434 0.0798771 61.9284 2.89988 64.5324 4.20547C72.6655 8.28224 93.1587 17.9564 112.854 24.2665C137.473 32.1541 149.459 51.6124 154.914 61.4736C160.369 71.3348 163.097 94.2044 160.159 109.731C157.222 125.257 147.99 125.676 140.647 124.418C133.303 123.159 125.54 116.864 119.665 114.556C114.966 112.71 101.202 107.353 94.9075 104.905L108.755 137.636C111.553 145.329 111.105 160.757 86.9346 160.925C56.7216 161.135 30.1007 144.235 22.1025 134.908C13.9568 125.409 0.281891 105.534 0.491705 84.1334C0.701518 62.7325 7.1818 49.8008 12.3714 42.6837C17.561 35.5665 26.4574 26.2252 33.5744 13.6219Z" fill="#FFC756"/>
<path d="M44.8284 147.716C22.4686 137.415 10.3887 112.648 7.14368 101.552C9.97002 106.21 19.7366 121.191 36.1924 130.738C56.7621 142.672 87.8522 145.498 92.0918 145.655C96.3313 145.812 109.678 145.832 104.81 151.798C99.9428 157.765 72.7782 160.592 44.8284 147.716Z" fill="#FEBB49"/>
<mask id="mask0_232_3097" style="mask-type:alpha" maskUnits="userSpaceOnUse" x="0" y="0" width="162" height="161">
<path d="M33.5744 13.6219C39.2681 3.53931 45.5352 1.1175 47.957 1.16693C55.3434 0.0798771 61.9284 2.89988 64.5324 4.20547C72.6655 8.28224 93.1587 17.9564 112.854 24.2665C137.473 32.1541 149.459 51.6124 154.914 61.4736C160.369 71.3348 163.097 94.2044 160.159 109.731C157.222 125.257 147.99 125.676 140.647 124.418C133.303 123.159 125.54 116.864 119.665 114.556C114.966 112.71 101.202 107.353 94.9075 104.905L108.755 137.636C111.553 145.329 111.105 160.757 86.9346 160.925C56.7216 161.135 30.1007 144.235 22.1025 134.908C13.9568 125.409 0.281891 105.534 0.491705 84.1334C0.701518 62.7325 7.1818 49.8008 12.3714 42.6837C17.561 35.5665 26.4574 26.2252 33.5744 13.6219Z" fill="#FBB34E"/>
</mask>
<g mask="url(#mask0_232_3097)">
<path d="M88.7863 93.7454C92.7481 99.7759 96.2902 107.726 97.566 110.948L98.8943 110.037C98.9194 108.931 98.3954 104.895 95.4932 95.6023C92.1342 84.8472 86.5657 73.1689 83.8859 68.1841C78.192 57.5927 65.0868 37.8289 56.9278 24.623C54.5464 20.2115 51.0191 11.4098 49.6002 18.7698C48.1813 26.13 55.6527 41.2849 58.1436 45.577C60.6345 49.8691 83.834 86.2074 88.7863 93.7454Z" fill="#FFB852"/>
<mask id="mask1_232_3097" style="mask-type:alpha" maskUnits="userSpaceOnUse" x="49" y="15" width="50" height="96">
<path d="M88.8083 93.7896C92.7701 99.8201 96.3122 107.77 97.588 110.992L98.9162 110.081C98.9414 108.975 96.9852 104.54 95.5152 95.6465C93.6777 84.5297 86.5876 73.2131 83.9078 68.2283C78.214 57.6369 65.1088 37.8731 56.9498 24.6672C54.5684 20.2557 51.0411 11.454 49.6222 18.814C48.2033 26.1742 55.6747 41.3291 58.1656 45.6212C60.6565 49.9133 83.856 86.2516 88.8083 93.7896Z" fill="#FFB852"/>
</mask>
<g mask="url(#mask1_232_3097)">
<path d="M53.0667 25.9642C50.9683 21.7153 48.0657 22.1454 46.8766 22.8916L46.8889 23.6957L44.2674 48.2613L59.8776 89.0113L95.0905 111.824C95.864 112.448 98.0618 114.306 97.1126 110.292C95.9262 105.274 85.4753 81.446 77.8155 67.8658C72.8052 58.9829 55.6897 31.2753 53.0667 25.9642Z" fill="#F5A12F"/>
</g>
</g>
<mask id="mask2_232_3097" style="mask-type:alpha" maskUnits="userSpaceOnUse" x="7" y="101" width="99" height="56">
<path d="M44.8284 147.716C22.4686 137.415 10.3887 112.648 7.14368 101.552C9.97002 106.21 19.7366 121.191 36.1924 130.738C56.7621 142.672 87.8522 145.498 92.0918 145.655C96.3313 145.812 109.678 145.832 104.81 151.798C99.9428 157.765 72.7782 160.592 44.8284 147.716Z" fill="#FEBB49"/>
</mask>
<g mask="url(#mask2_232_3097)">
<path d="M50.5651 142.051C26.0852 133.607 11.4176 112.262 7.1438 102.645L29.8801 108.274C36.4902 111.206 49.8813 117.141 50.5651 117.422C51.249 117.703 81.554 132.712 97.1674 141.273C99.6177 143.384 104.408 147.087 102.125 149.365C100.022 151.464 81.1651 152.606 50.5651 142.051Z" fill="url(#paint0_linear_232_3097)"/>
</g>
<path d="M57.1617 43.7978C55.2349 40.4874 51.8299 31.2608 50.3682 27.0613L38.7592 34.0306L36.7954 48.0224C37.2864 54.0774 38.3664 66.4401 38.7592 67.4514C39.1519 68.4627 39.7411 81.5947 39.9866 88.0342L71.9838 116.263C80.6711 115 97.5642 111.3 95.6373 106.606C93.7104 101.913 79.0654 78.5474 71.9838 67.4514C67.8459 60.9462 59.0886 47.1081 57.1617 43.7978Z" fill="#FFC756"/>
<defs>
<linearGradient id="paint0_linear_232_3097" x1="7.14379" y1="75.1954" x2="185.621" y2="302.17" gradientUnits="userSpaceOnUse">
<stop stop-color="#FEBB48"/>
<stop offset="1" stop-color="#E87709"/>
</linearGradient>
</defs>
</svg>
