<svg width="45" height="45" viewBox="0 0 45 45" fill="none" xmlns="http://www.w3.org/2000/svg">
<path d="M31.325 7.83325C34.6387 7.83325 37.325 10.5195 37.325 13.8333L37.325 31.075C37.325 34.3887 34.6387 37.075 31.3249 37.075L14.0833 37.075C10.7695 37.075 8.08325 34.3887 8.08325 31.0749L8.08325 13.8333C8.08325 10.5195 10.7695 7.83325 14.0833 7.83325L31.325 7.83325Z" fill="#B1B2FA"/>
<path d="M13.3418 21.2048C13.3418 20.1003 14.2372 19.2048 15.3418 19.2048H30.1582C31.2628 19.2048 32.1582 20.1003 32.1582 21.2048V23.7952C32.1582 24.8997 31.2628 25.7952 30.1582 25.7952H15.3418C14.2372 25.7952 13.3418 24.8997 13.3418 23.7952V21.2048Z" fill="#6462FF"/>
<path d="M24.0452 13.0918C25.1497 13.0918 26.0452 13.9872 26.0452 15.0918L26.0452 29.9082C26.0452 31.0128 25.1497 31.9082 24.0452 31.9082L21.4548 31.9082C20.3503 31.9082 19.4548 31.0128 19.4548 29.9082L19.4548 15.0918C19.4548 13.9872 20.3503 13.0918 21.4548 13.0918L24.0452 13.0918Z" fill="#6462FF"/>
</svg>
