<svg width="45" height="45" viewBox="0 0 45 45" fill="none" xmlns="http://www.w3.org/2000/svg">
<path d="M8.93872 27.3067V19.6521H35.1338V24.2092V27.3172C35.1338 28.4164 34.5327 29.4276 33.567 29.9528L24.0165 35.1464C22.8314 35.7909 21.4012 35.7946 20.2128 35.1563L10.5192 29.9496C9.54591 29.4269 8.93872 28.4115 8.93872 27.3067Z" fill="#B6ECB1"/>
<path d="M18.8967 9.73728L4.60238 17.4989C3.90724 17.8764 3.90478 18.8733 4.59805 19.2542L18.3853 26.8289C20.7826 28.146 23.6866 28.147 26.0847 26.8316L39.8987 19.2545C40.5928 18.8738 40.5903 17.8759 39.8944 17.4986L25.5731 9.735C23.4906 8.60608 20.9784 8.60694 18.8967 9.73728Z" fill="#39B54A"/>
<path fill-rule="evenodd" clip-rule="evenodd" d="M23.2268 17.8493C23.4641 18.1888 23.3812 18.6564 23.0417 18.8937L15.265 24.3291C14.9304 24.5629 14.7311 24.9454 14.7311 25.3536L14.7301 36.7939C14.7301 37.2082 14.3943 37.5439 13.9801 37.5439C13.5659 37.5438 13.2301 37.208 13.2301 36.7938L13.2311 25.3534C13.2312 24.4555 13.6697 23.6141 14.4057 23.0996L22.1824 17.6643C22.5219 17.427 22.9895 17.5098 23.2268 17.8493Z" fill="#68C76F"/>
<path fill-rule="evenodd" clip-rule="evenodd" d="M15.6681 36.8039L15.6682 36.7963C15.6682 36.1535 14.9125 35.6324 13.9802 35.6324C13.0481 35.6324 12.2924 36.1534 12.2922 36.7961H12.2922V39.7539H12.2922L12.2923 40.8386C12.2923 40.9238 12.4386 40.972 12.5177 40.913L13.9802 39.8204L15.4427 40.913C15.5218 40.972 15.6681 40.9238 15.6681 40.8386L15.6681 39.7539H15.6681V36.8039Z" fill="#68C76F"/>
<path d="M23.7102 18.8674C22.8598 19.072 22.032 18.9215 21.8642 18.5308C21.6941 18.1402 22.2475 17.6582 23.0979 17.4536C23.9483 17.2489 25.0278 17.3792 25.182 17.7326C25.3362 18.0861 24.5606 18.6628 23.7102 18.8674Z" fill="#B6ECB1"/>
<path d="M22.2793 19.3223C21.7554 18.7828 21.6919 18.1503 22.1364 17.9085C22.5809 17.6683 23.3678 17.9101 23.8917 18.4513C24.4155 18.9908 24.5833 19.7975 24.1797 20.0157C23.776 20.2338 22.8008 19.8634 22.277 19.3223H22.2793Z" fill="#B6ECB1"/>
<path d="M21.2565 18.4478C21.7826 17.91 22.5695 17.6682 23.014 17.91C23.4585 18.1519 23.3927 18.7844 22.8643 19.3221C22.3382 19.8599 21.3608 20.2286 20.9594 20.0105C20.558 19.7923 20.7281 18.9856 21.2542 18.4478H21.2565Z" fill="#B6ECB1"/>
<path d="M22.0546 17.4519C22.9051 17.6582 23.4539 18.1436 23.2838 18.5326C23.1137 18.9215 22.2859 19.0704 21.4355 18.864C20.5851 18.6577 19.8141 18.0777 19.9705 17.7259C20.127 17.3741 21.2065 17.2456 22.0546 17.4519Z" fill="#B6ECB1"/>
<path d="M23.5719 17.7107C23.5719 18.377 23.1229 18.9165 22.5741 18.9165C22.023 18.9165 21.5786 18.3753 21.5808 17.709C21.5808 17.0427 22.082 16.3171 22.5809 16.3171C23.0798 16.3171 23.5742 17.0443 23.5742 17.7107H23.5719Z" fill="#B6ECB1"/>
</svg>
