<svg width="45" height="45" viewBox="0 0 45 45" fill="none" xmlns="http://www.w3.org/2000/svg">
<path fill-rule="evenodd" clip-rule="evenodd" d="M22.0872 36.3589C22.298 36.4724 22.5283 36.5137 22.7498 36.4914C22.9715 36.5139 23.202 36.4726 23.413 36.359C26.4632 34.7166 33.2681 30.4076 36.3894 23.5799C39.492 16.7932 34.3143 10.6263 29.1022 10.6263C27.7929 10.6263 26.5072 10.8034 25.272 11.3948C24.3622 11.8303 23.5286 12.4669 22.7502 13.3427C22.3332 12.8735 21.9 12.4727 21.4467 12.1341C19.8636 10.9516 18.1671 10.6262 16.398 10.6262C11.1859 10.6262 6.00824 16.7931 9.11082 23.5798C12.2322 30.4076 19.037 34.7166 22.0872 36.3589Z" fill="#EF4453"/>
</svg>
