<svg width="45" height="45" viewBox="0 0 45 45" fill="none" xmlns="http://www.w3.org/2000/svg">
<path fill-rule="evenodd" clip-rule="evenodd" d="M22.25 7.7417V37.2583H16.6514C11.6808 37.2583 7.65137 33.2289 7.65137 28.2583V25.9488C7.65137 24.4214 8.23392 22.9514 9.28028 21.8387L14.3786 16.4166C14.7274 16.0457 14.9216 15.5557 14.9216 15.0466V14.074C14.9216 13.6268 14.7718 13.1926 14.496 12.8406L11.7679 9.35842C11.2537 8.70208 11.7213 7.7417 12.5551 7.7417H22.25ZM22.25 7.7417V37.2583H27.8486C32.8192 37.2583 36.8486 33.2289 36.8486 28.2583V25.9488C36.8486 24.4214 36.2661 22.9514 35.2197 21.8387L30.1214 16.4166C29.7726 16.0457 29.5784 15.5557 29.5784 15.0466V14.074C29.5784 13.6268 29.7282 13.1926 30.004 12.8406L32.7321 9.35842C33.2463 8.70208 32.7787 7.7417 31.9449 7.7417H22.25Z" fill="#FFB9ED"/>
<path fill-rule="evenodd" clip-rule="evenodd" d="M13.8706 14.7649C13.8706 14.3507 14.3183 14.0149 14.8706 14.0149L29.4456 14.0149C29.9978 14.0149 30.4456 14.3507 30.4456 14.7649C30.4456 15.1791 29.9978 15.5149 29.4456 15.5149L14.8706 15.5149C14.3183 15.5149 13.8706 15.1791 13.8706 14.7649Z" fill="#E3279C"/>
<path fill-rule="evenodd" clip-rule="evenodd" d="M17.9548 23.5417C17.9548 21.9265 19.2642 20.6172 20.8793 20.6172H23.6209C25.236 20.6172 26.5452 21.9264 26.5452 23.5415C26.5452 24.0938 26.0975 24.5415 25.5452 24.5415C24.9929 24.5415 24.5452 24.0938 24.5452 23.5415C24.5452 23.031 24.1314 22.6172 23.6209 22.6172H20.8793C20.3687 22.6172 19.9548 23.0311 19.9548 23.5417C19.9548 23.9524 20.2259 24.314 20.6202 24.4291L24.386 25.5286C25.6656 25.9022 26.5452 27.0754 26.5452 28.4084V28.8054C26.5452 30.4622 25.2021 31.8054 23.5452 31.8054H20.9548C19.298 31.8054 17.9548 30.4622 17.9548 28.8054V28.4963C17.9548 27.944 18.4025 27.4963 18.9548 27.4963C19.5071 27.4963 19.9548 27.944 19.9548 28.4963V28.8054C19.9548 29.3577 20.4025 29.8054 20.9548 29.8054H23.5452C24.0975 29.8054 24.5452 29.3577 24.5452 28.8054V28.4084C24.5452 27.964 24.252 27.573 23.8255 27.4485L20.0597 26.3489C18.8123 25.9847 17.9548 24.8411 17.9548 23.5417Z" fill="#E3279C"/>
<path fill-rule="evenodd" clip-rule="evenodd" d="M22.25 18.5471C22.6642 18.5471 23 18.9948 23 19.5471L23 21.5975C23 22.1498 22.6642 22.5975 22.25 22.5975C21.8358 22.5975 21.5 22.1498 21.5 21.5975L21.5 19.5471C21.5 18.9948 21.8358 18.5471 22.25 18.5471ZM22.25 29.8246C22.6642 29.8246 23 30.2723 23 30.8246L23 32.8751C23 33.4273 22.6642 33.8751 22.25 33.8751C21.8358 33.8751 21.5 33.4273 21.5 32.8751L21.5 30.8246C21.5 30.2723 21.8358 29.8246 22.25 29.8246Z" fill="#E3279C"/>
</svg>
