<svg width="20" height="25" viewBox="0 0 20 25" fill="none" xmlns="http://www.w3.org/2000/svg">
<path d="M5.65818 4.4252V19.6736C5.20349 19.5189 4.69724 19.4252 4.15818 19.4252C2.22693 19.4252 0.656616 20.5455 0.656616 21.9236C0.656616 23.3064 2.22224 24.4221 4.15818 24.4221C6.08943 24.4221 7.65974 23.3018 7.65974 21.9236C7.65974 21.7549 7.6363 21.5861 7.58943 21.4221H7.65974V8.85488L17.6582 6.0002V16.6783C17.2035 16.5236 16.6972 16.4299 16.1582 16.4299C14.2269 16.4299 12.6566 17.5502 12.6566 18.9283C12.6566 20.3111 14.2222 21.4268 16.1582 21.4268C18.0894 21.4268 19.6597 20.3064 19.6597 18.9283C19.6597 18.7689 19.6363 18.6143 19.5941 18.4596L19.6597 18.4268V0.426758L5.65818 4.4252Z" fill="#FFF8EC"/>
</svg>
