<svg width="45" height="45" viewBox="0 0 45 45" fill="none" xmlns="http://www.w3.org/2000/svg">
<path d="M13.2749 19.3635C15.0172 23.3512 18.165 25.4492 22.7184 25.6438C22.8649 25.6438 22.982 25.4909 22.9234 25.3659C21.1811 21.3782 18.0333 19.2801 13.4798 19.0856C13.3334 19.0856 13.2163 19.2384 13.2749 19.3635Z" fill="#68C76F"/>
<path d="M22.2499 13.1389V24.2545" stroke="#39B54A" stroke-width="1.5" stroke-miterlimit="10" stroke-linecap="round"/>
<path d="M28.8386 24.2542H15.6615C13.6399 24.2542 12.0012 26.387 12.0012 29.0181C12.0012 31.6491 13.6399 33.782 15.6615 33.782H28.8386C30.8601 33.782 32.4989 31.6491 32.4989 29.0181C32.4989 26.387 30.8601 24.2542 28.8386 24.2542Z" fill="#92D3F4"/>
<path d="M28.8386 29.7418H15.6615C13.6399 29.7418 12.0012 31.7279 12.0012 34.1778C12.0012 36.6278 13.6399 38.6139 15.6615 38.6139H28.8386C30.8601 38.6139 32.4989 36.6278 32.4989 34.1778C32.4989 31.7279 30.8601 29.7418 28.8386 29.7418Z" fill="#92D3F4"/>
<path d="M22.7621 18.1409C22.1032 17.0154 21.7079 14.4866 22.7182 13.9586C23.7284 13.4307 25.7928 15.0702 26.4517 16.1957C27.1105 17.3211 26.8177 18.6828 25.8075 19.2108C24.7972 19.7387 23.421 19.2663 22.7621 18.1409Z" fill="#FC6547"/>
<path d="M17.9451 16.0572C18.6479 14.9457 20.7416 13.3617 21.7518 13.9314C22.762 14.501 22.2789 17.0021 21.5761 18.1136C20.8733 19.2252 19.4971 19.6559 18.5015 19.0862C17.5059 18.5166 17.2569 17.1549 17.9597 16.0433L17.9451 16.0572Z" fill="#FC6547"/>
<path d="M17.4329 11.0687C18.7946 11.0826 21.2836 12.0275 21.2689 13.1251C21.2543 14.2228 18.7214 15.0981 17.3597 15.0704C15.9981 15.0426 14.9146 14.1394 14.9293 13.0279C14.9439 11.9163 16.0713 11.041 17.4329 11.0549V11.0687Z" fill="#FC6547"/>
<path d="M21.7376 8.13693C22.3964 9.26239 22.7917 11.7912 21.7815 12.3192C20.7713 12.8472 18.7068 11.2076 18.048 10.0822C17.3891 8.95671 17.682 7.59505 18.6922 7.06706C19.7024 6.53907 21.0787 7.01148 21.7376 8.13693Z" fill="#FC6547"/>
<path d="M26.5546 10.2211C25.8518 11.3327 23.7581 12.9167 22.7479 12.347C21.7376 11.7773 22.2208 9.27632 22.9236 8.16476C23.6263 7.0532 25.0026 6.62247 25.9982 7.19215C26.9938 7.76182 27.2427 9.12348 26.5399 10.235L26.5546 10.2211Z" fill="#FC6547"/>
<path d="M27.0667 15.2232C25.7051 15.2093 23.2161 14.2645 23.2307 13.1668C23.2454 12.0692 25.7783 11.1938 27.1399 11.2216C28.5016 11.2494 29.585 12.1525 29.5704 13.2641C29.5557 14.3756 28.4284 15.251 27.0667 15.2371V15.2232Z" fill="#FC6547"/>
<path d="M22.2498 15.223C23.4628 15.223 24.446 14.2899 24.446 13.1389C24.446 11.9878 23.4628 11.0547 22.2498 11.0547C21.0369 11.0547 20.0536 11.9878 20.0536 13.1389C20.0536 14.2899 21.0369 15.223 22.2498 15.223Z" fill="#FFE7B8"/>
</svg>
