<svg width="45" height="45" viewBox="0 0 45 45" fill="none" xmlns="http://www.w3.org/2000/svg">
<path d="M29.0458 27.4811C24.3252 29.0042 19.7305 27.8839 18.799 24.976C17.8549 22.0682 20.9264 18.4805 25.647 16.9574C30.3675 15.4342 36.3595 16.4035 37.2155 19.0344C38.0715 21.6653 33.7663 25.9579 29.0458 27.4811Z" fill="#FDDC37"/>
<path d="M21.1023 30.8673C18.1944 26.8517 17.842 22.1437 20.3092 20.3436C22.7765 18.5561 27.1446 20.3562 30.0525 24.3844C32.9603 28.4 33.8919 34.4046 31.6512 36.0284C29.4105 37.6523 23.9976 34.8955 21.0897 30.8673H21.1023Z" fill="#FDDC37"/>
<path d="M15.4254 24.3594C18.3458 20.3564 22.7139 18.5562 25.1812 20.3564C27.6485 22.1565 27.2834 26.8644 24.3504 30.8675C21.4299 34.8705 16.0044 37.6147 13.7763 35.9908C11.5482 34.367 12.4924 28.3624 15.4128 24.3594H15.4254Z" fill="#FDDC37"/>
<path d="M19.8562 16.9445C24.5768 18.4802 27.6231 22.093 26.679 24.9883C25.7349 27.8836 21.1402 28.9913 16.4197 27.4556C11.6991 25.9198 7.41912 21.6021 8.28771 18.9837C9.15629 16.3654 15.1483 15.4087 19.8562 16.9445Z" fill="#FDDC37"/>
<path d="M28.2777 18.8707C28.2777 23.8304 25.7853 27.8461 22.7389 27.8461C19.68 27.8461 17.2127 23.8178 17.2253 18.8581C17.2253 13.8984 20.0073 8.49805 22.7767 8.49805C25.5461 8.49805 28.2903 13.911 28.2903 18.8707H28.2777Z" fill="#FDDC37"/>
</svg>
