<svg width="45" height="45" viewBox="0 0 45 45" fill="none" xmlns="http://www.w3.org/2000/svg">
<path d="M13.9076 36.334C13.9076 35.7477 14.4186 35.2725 15.0491 35.2725H16.4154C17.0458 35.2725 17.5569 35.7477 17.5569 36.334V37.8433C17.5569 38.4295 17.0458 38.9048 16.4154 38.9048H15.0491C14.4186 38.9048 13.9076 38.4295 13.9076 37.8433V36.334Z" fill="#2E5DBD"/>
<path d="M26.7905 36.334C26.7905 35.7477 27.3015 35.2725 27.932 35.2725H29.2983C29.9287 35.2725 30.4398 35.7477 30.4398 36.334V37.8433C30.4398 38.4295 29.9287 38.9048 29.2983 38.9048H27.932C27.3015 38.9048 26.7905 38.4295 26.7905 37.8433V36.334Z" fill="#2E5DBD"/>
<path fill-rule="evenodd" clip-rule="evenodd" d="M15.218 8.21772C15.218 7.04522 16.2401 6.09473 17.5009 6.09473H26.8466C28.1075 6.09473 29.1296 7.04523 29.1296 8.21772V12.5238C29.1296 13.6963 28.1075 14.6468 26.8466 14.6468H17.5009C16.2401 14.6468 15.218 13.6963 15.218 12.5238V8.21772ZM26.8466 8.21772H17.5009V12.5238H26.8466V8.21772Z" fill="#2E5DBD"/>
<path d="M10.6537 14.7817C10.6537 13.0229 12.1868 11.5972 14.0781 11.5972H30.2695C32.1607 11.5972 33.6938 13.0229 33.6938 14.7817V33.1983C33.6938 34.957 32.1607 36.3828 30.2695 36.3828H14.0781C12.1868 36.3828 10.6537 34.957 10.6537 33.1983V14.7817Z" fill="#8AC2FF"/>
<path fill-rule="evenodd" clip-rule="evenodd" d="M22.1737 17.4985C22.6465 17.4985 23.0298 17.855 23.0298 18.2947V31.7832C23.0298 32.2228 22.6465 32.5793 22.1737 32.5793C21.7009 32.5793 21.3176 32.2228 21.3176 31.7832V18.2947C21.3176 17.855 21.7009 17.4985 22.1737 17.4985Z" fill="#2E5DBD"/>
<path fill-rule="evenodd" clip-rule="evenodd" d="M27.8808 17.4985C28.3536 17.4985 28.7369 17.855 28.7369 18.2947V31.7832C28.7369 32.2228 28.3536 32.5793 27.8808 32.5793C27.408 32.5793 27.0247 32.2228 27.0247 31.7832V18.2947C27.0247 17.855 27.408 17.4985 27.8808 17.4985Z" fill="#2E5DBD"/>
<path fill-rule="evenodd" clip-rule="evenodd" d="M16.4665 17.4985C16.9393 17.4985 17.3226 17.855 17.3226 18.2947V31.7832C17.3226 32.2228 16.9393 32.5793 16.4665 32.5793C15.9937 32.5793 15.6104 32.2228 15.6104 31.7832V18.2947C15.6104 17.855 15.9937 17.4985 16.4665 17.4985Z" fill="#2E5DBD"/>
</svg>
