<svg width="24" height="34" viewBox="0 0 24 34" fill="none" xmlns="http://www.w3.org/2000/svg">
<path d="M3.40759 30.9792C3.40759 30.393 3.91864 29.9177 4.54905 29.9177H5.91541C6.54582 29.9177 7.05687 30.393 7.05687 30.9792V32.4885C7.05687 33.0748 6.54582 33.55 5.91541 33.55H4.54905C3.91864 33.55 3.40759 33.0748 3.40759 32.4885V30.9792Z" fill="#2E5DBD"/>
<path d="M16.2905 30.9792C16.2905 30.393 16.8015 29.9177 17.432 29.9177H18.7983C19.4287 29.9177 19.9398 30.393 19.9398 30.9792V32.4885C19.9398 33.0748 19.4287 33.55 18.7983 33.55H17.432C16.8015 33.55 16.2905 33.0748 16.2905 32.4885V30.9792Z" fill="#2E5DBD"/>
<path fill-rule="evenodd" clip-rule="evenodd" d="M4.71802 2.86299C4.71802 1.69049 5.74012 0.73999 7.00094 0.73999H16.3466C17.6075 0.73999 18.6296 1.69049 18.6296 2.86299V7.16911C18.6296 8.34161 17.6075 9.2921 16.3466 9.2921H7.00094C5.74012 9.2921 4.71802 8.34161 4.71802 7.16911V2.86299ZM16.3466 2.86299H7.00094V7.16911H16.3466V2.86299Z" fill="#2E5DBD"/>
<path d="M0.153671 9.42693C0.153671 7.66818 1.68682 6.24243 3.57805 6.24243H19.7695C21.6607 6.24243 23.1938 7.66818 23.1938 9.42693V27.8435C23.1938 29.6023 21.6607 31.028 19.7695 31.028H3.57805C1.68682 31.028 0.153671 29.6023 0.153671 27.8435V9.42693Z" fill="#8AC2FF"/>
<path fill-rule="evenodd" clip-rule="evenodd" d="M11.6737 12.1438C12.1465 12.1438 12.5298 12.5002 12.5298 12.9399V26.4284C12.5298 26.8681 12.1465 27.2245 11.6737 27.2245C11.2009 27.2245 10.8176 26.8681 10.8176 26.4284V12.9399C10.8176 12.5002 11.2009 12.1438 11.6737 12.1438Z" fill="#2E5DBD"/>
<path fill-rule="evenodd" clip-rule="evenodd" d="M17.3808 12.1438C17.8536 12.1438 18.2369 12.5002 18.2369 12.9399V26.4284C18.2369 26.8681 17.8536 27.2245 17.3808 27.2245C16.908 27.2245 16.5247 26.8681 16.5247 26.4284V12.9399C16.5247 12.5002 16.908 12.1438 17.3808 12.1438Z" fill="#2E5DBD"/>
<path fill-rule="evenodd" clip-rule="evenodd" d="M5.96647 12.1438C6.43928 12.1438 6.82257 12.5002 6.82257 12.9399V26.4284C6.82257 26.8681 6.43928 27.2245 5.96647 27.2245C5.49367 27.2245 5.11038 26.8681 5.11038 26.4284V12.9399C5.11038 12.5002 5.49367 12.1438 5.96647 12.1438Z" fill="#2E5DBD"/>
</svg>
